<svg version="1.1" id="Layer_1" xmlns="http://www.w3.org/2000/svg" xmlns:xlink="http://www.w3.org/1999/xlink" x="0px" y="0px"
	 width="100%" viewBox="0 0 203 204" enable-background="new 0 0 203 204" xml:space="preserve">
<path fill="#1E1E1E" opacity="1.000000" stroke="none" 
	d="
M204.000000,35.000000 
	C204.000000,80.354225 204.000000,125.708458 203.650345,171.633774 
	C198.274780,188.941193 187.774689,200.057220 170.476196,204.219635 
	C170.266998,204.269974 170.156540,204.730789 170.000000,205.000000 
	C124.645775,205.000000 79.291542,205.000000 33.370472,204.646332 
	C25.315472,201.837967 17.699646,199.134216 12.739874,192.805099 
	C8.207749,187.021683 4.866223,180.305252 1.000000,174.000000 
	C1.000000,126.979103 1.000000,79.958214 1.273303,32.243168 
	C6.457186,16.276369 16.566618,6.417628 32.087082,2.157717 
	C32.778549,1.967930 33.364761,1.394651 34.000000,1.000000 
	C79.020897,1.000000 124.041786,1.000000 169.656662,1.351665 
	C187.297546,6.021334 198.415833,16.408236 202.941376,33.579525 
	C203.080978,34.109226 203.637726,34.528988 204.000000,35.000000 
M194.945786,165.153183 
	C194.964523,124.682457 195.025375,84.211685 194.983795,43.741024 
	C194.963806,24.290651 180.645660,10.038545 161.139709,10.013315 
	C121.834564,9.962477 82.529289,9.967128 43.224129,10.010687 
	C23.103611,10.032985 9.023648,24.197420 9.007390,44.385738 
	C8.976005,83.357819 8.976287,122.329956 9.005661,161.302048 
	C9.021319,182.077332 23.022478,195.983704 43.907307,195.995544 
	C82.712860,196.017548 121.518433,196.017670 160.323990,195.995071 
	C179.176315,195.984085 192.012604,184.830963 194.945786,165.153183 
z"/>
<path fill="#D9D9D9" opacity="1.000000" stroke="none" 
	d="
M204.000000,34.531342 
	C203.637726,34.528988 203.080978,34.109226 202.941376,33.579525 
	C198.415833,16.408236 187.297546,6.021334 170.125320,1.351665 
	C181.259903,1.000000 192.519821,1.000000 204.000000,1.000000 
	C204.000000,12.019917 204.000000,23.041300 204.000000,34.531342 
z"/>
<path fill="#D9D9D9" opacity="1.000000" stroke="none" 
	d="
M170.468658,205.000000 
	C170.156540,204.730789 170.266998,204.269974 170.476196,204.219635 
	C187.774689,200.057220 198.274780,188.941193 203.650345,172.102432 
	C204.000000,182.927658 204.000000,193.855331 204.000000,205.000000 
	C192.980057,205.000000 181.958679,205.000000 170.468658,205.000000 
z"/>
<path fill="#D9D9D9" opacity="1.000000" stroke="none" 
	d="
M33.531342,1.000000 
	C33.364761,1.394651 32.778549,1.967930 32.087082,2.157717 
	C16.566618,6.417628 6.457186,16.276369 1.273303,31.774509 
	C1.000000,21.737831 1.000000,11.475662 1.000000,1.000000 
	C11.686615,1.000000 22.374649,1.000000 33.531342,1.000000 
z"/>
<path fill="#D9D9D9" opacity="1.000000" stroke="none" 
	d="
M1.000000,174.468658 
	C4.866223,180.305252 8.207749,187.021683 12.739874,192.805099 
	C17.699646,199.134216 25.315472,201.837967 32.901814,204.646332 
	C22.407969,205.000000 11.815937,205.000000 1.000000,205.000000 
	C1.000000,194.980209 1.000000,184.958771 1.000000,174.468658 
z"/>
<path fill="#DADADA" opacity="1.000000" stroke="none" 
	d="
M194.913071,165.608795 
	C192.012604,184.830963 179.176315,195.984085 160.323990,195.995071 
	C121.518433,196.017670 82.712860,196.017548 43.907307,195.995544 
	C23.022478,195.983704 9.021319,182.077332 9.005661,161.302048 
	C8.976287,122.329956 8.976005,83.357819 9.007390,44.385738 
	C9.023648,24.197420 23.103611,10.032985 43.224129,10.010687 
	C82.529289,9.967128 121.834564,9.962477 161.139709,10.013315 
	C180.645660,10.038545 194.963806,24.290651 194.983795,43.741024 
	C195.025375,84.211685 194.964523,124.682457 194.913071,165.608795 
M30.686953,21.939404 
	C21.111710,26.744341 18.113764,35.236488 18.092323,45.122829 
	C18.008503,83.770012 17.894018,122.418488 18.131723,161.064392 
	C18.235861,177.995071 27.291983,186.772949 44.427917,186.850739 
	C82.907997,187.025436 121.389687,186.970474 159.869888,186.808853 
	C163.945801,186.791748 168.295090,186.122467 172.035812,184.584213 
	C182.513245,180.275711 185.906677,171.321213 185.925201,160.767578 
	C185.992416,122.453323 186.108276,84.138100 185.901962,45.824879 
	C185.805496,27.912630 176.869125,19.188492 158.961868,19.126862 
	C120.981155,18.996145 82.999268,18.999073 45.019096,19.190969 
	C40.466690,19.213970 35.921917,20.747978 30.686953,21.939404 
z"/>
<path fill="#020201" opacity="1.000000" stroke="none" 
	d="
M31.030279,21.760517 
	C35.921917,20.747978 40.466690,19.213970 45.019096,19.190969 
	C82.999268,18.999073 120.981155,18.996145 158.961868,19.126862 
	C176.869125,19.188492 185.805496,27.912630 185.901962,45.824879 
	C186.108276,84.138100 185.992416,122.453323 185.925201,160.767578 
	C185.906677,171.321213 182.513245,180.275711 172.035812,184.584213 
	C168.295090,186.122467 163.945801,186.791748 159.869888,186.808853 
	C121.389687,186.970474 82.907997,187.025436 44.427917,186.850739 
	C27.291983,186.772949 18.235861,177.995071 18.131723,161.064392 
	C17.894018,122.418488 18.008503,83.770012 18.092323,45.122829 
	C18.113764,35.236488 21.111710,26.744341 31.030279,21.760517 
M132.838791,91.342682 
	C131.924423,90.864021 131.010071,90.385368 130.037720,89.271217 
	C129.993561,88.847908 129.949417,88.424606 130.373535,87.583206 
	C129.004166,81.159653 125.041580,79.690178 116.222221,82.757584 
	C115.456253,82.847160 114.690277,82.936737 113.303940,83.031982 
	C112.890465,83.030037 112.476990,83.028084 111.645065,82.884254 
	C111.645065,82.884254 111.204582,82.859787 110.474258,82.790085 
	C109.985435,82.795532 109.496620,82.800987 108.432167,82.382545 
	C104.973442,83.269722 101.514725,84.156898 97.304054,85.033279 
	C93.182640,85.519966 91.428932,88.159042 90.879784,92.697807 
	C90.239510,94.498543 89.599236,96.299278 88.139526,98.015099 
	C86.490356,97.981194 84.841179,97.947296 82.906548,97.311020 
	C82.269417,97.198097 81.632278,97.085182 80.453697,96.477539 
	C79.833641,96.294609 79.219269,96.088921 78.592628,95.932289 
	C72.430397,94.391975 71.489563,94.959763 69.079018,100.788109 
	C68.785812,101.497055 67.058304,101.612785 65.814240,101.366173 
	C64.598450,99.604858 63.382660,97.843544 62.065380,95.935196 
	C60.298134,98.323799 58.612457,100.602150 56.227280,102.532005 
	C54.922783,99.821777 54.653034,96.038635 50.375088,96.220192 
	C44.637867,96.463661 48.628162,101.688179 46.206165,104.178185 
	C44.121769,103.838783 41.703461,103.445015 40.278484,103.212990 
	C42.794125,104.684570 46.085403,106.609871 49.602932,108.667526 
	C49.725189,103.977570 53.350677,103.453285 57.097713,103.550125 
	C56.874542,105.472336 56.651371,107.394539 56.428196,109.316750 
	C56.815575,109.488464 57.202950,109.660179 57.590324,109.831894 
	C58.321770,108.650017 58.840042,107.223297 59.841408,106.351425 
	C60.962601,105.375229 62.521320,104.901543 63.979893,104.964699 
	C67.913315,108.375145 72.644051,109.476837 77.676201,109.597015 
	C79.106728,109.631180 80.544350,109.367783 82.782967,109.182777 
	C83.851860,109.245560 84.920753,109.308342 85.963287,110.113754 
	C86.340393,111.283302 86.717499,112.452858 87.094597,113.622406 
	C88.149147,113.010139 89.195564,112.383217 90.261574,111.791595 
	C90.824203,111.479347 91.420990,111.228622 92.016380,111.791336 
	C91.593513,114.642548 91.170647,117.493759 90.783218,120.105972 
	C97.105148,124.921989 103.877815,128.122849 112.016754,125.947754 
	C113.438332,125.567841 114.739876,124.738785 116.725403,124.080299 
	C117.145470,124.070854 117.565544,124.061409 118.491470,124.529709 
	C125.636307,127.040627 135.617599,118.885880 136.818649,110.095673 
	C139.238251,109.816925 141.657852,109.538185 144.685547,108.847969 
	C145.434250,108.254425 146.108521,107.506432 146.948227,107.101753 
	C148.385101,106.409279 150.883469,106.254349 151.207733,105.291573 
	C151.753189,103.672073 151.149796,101.536278 150.619980,99.738403 
	C150.354095,98.836052 149.216278,97.647758 148.416687,97.603539 
	C147.668976,97.562180 146.463989,98.717316 146.131592,99.598953 
	C145.229645,101.991402 144.683792,104.518112 143.221954,107.234344 
	C141.280792,107.503906 139.339630,107.773468 137.539536,108.023445 
	C136.972565,104.028336 136.506088,100.741302 136.033783,96.793739 
	C135.353043,95.866219 134.672318,94.938690 134.000000,94.000000 
	C134.000000,94.000000 133.988419,94.008324 133.929138,93.420319 
	C133.611679,92.945839 133.294235,92.471359 132.838791,91.342682 
M156.024643,99.997711 
	C156.068176,102.653290 156.111725,105.308876 155.613831,108.096779 
	C155.513275,108.609932 155.412720,109.123085 155.312180,109.636238 
	C158.252258,109.415993 163.143250,110.083405 163.730545,108.792648 
	C164.993973,106.015877 164.717957,101.995247 163.664597,98.974525 
	C163.241776,97.762054 159.121246,97.821594 156.665878,97.408333 
	C156.580505,97.393967 156.302704,98.522911 156.024643,99.997711 
M152.008942,108.863228 
	C152.008942,108.863228 152.044342,109.084259 152.044342,109.084259 
	C152.044342,109.084259 152.095383,108.878876 152.008942,108.863228 
z"/>
<path fill="#21211F" opacity="1.000000" stroke="none" 
	d="
M81.978722,109.240845 
	C80.544350,109.367783 79.106728,109.631180 77.676201,109.597015 
	C72.644051,109.476837 67.913315,108.375145 64.245491,104.549911 
	C64.719398,104.130257 64.927711,104.125389 65.359344,104.350510 
	C66.607582,104.683891 67.632507,104.787285 68.657425,104.890678 
	C68.680367,104.618095 68.703308,104.345512 68.726242,104.072937 
	C67.771492,103.999298 66.816742,103.925659 65.882179,103.543762 
	C65.933418,102.824814 65.964470,102.414124 65.995522,102.003441 
	C67.058304,101.612785 68.785812,101.497055 69.079018,100.788109 
	C71.489563,94.959763 72.430397,94.391975 78.592628,95.932289 
	C79.219269,96.088921 79.833641,96.294609 80.608604,97.171738 
	C81.168587,101.657578 81.573654,105.449211 81.978722,109.240845 
z"/>
<path fill="#280A03" opacity="1.000000" stroke="none" 
	d="
M135.999939,110.225220 
	C135.617599,118.885880 125.636307,127.040627 118.402542,124.058792 
	C118.878891,123.095001 119.444160,122.602135 120.268883,122.088104 
	C120.701447,122.054794 120.874557,122.042641 121.385788,122.017410 
	C122.484612,121.355690 123.245323,120.707047 124.293953,119.907394 
	C125.085358,118.841820 125.588860,117.927261 126.422714,116.963242 
	C128.188385,115.310051 129.623688,113.706314 131.116730,111.740051 
	C131.225067,110.890739 131.275665,110.403946 131.494095,109.723450 
	C131.781418,109.028954 131.900909,108.528152 132.048798,107.773697 
	C132.096451,107.350952 132.115677,107.181877 132.357758,106.716545 
	C132.408630,104.278091 132.236633,102.135902 131.994354,99.649704 
	C131.428055,98.858253 130.932022,98.410820 130.486343,97.661362 
	C130.520889,96.747704 130.505081,96.136078 130.715515,95.245804 
	C131.277054,94.639664 131.612335,94.312164 132.288498,93.990311 
	C133.082397,94.000076 133.535400,94.004204 133.988419,94.008324 
	C133.988419,94.008324 134.000000,94.000000 133.994202,94.409027 
	C133.997559,95.894882 134.006714,96.971710 134.014496,98.474609 
	C134.229752,101.571304 134.446350,104.241943 134.708435,107.281784 
	C135.169250,108.509071 135.584595,109.367149 135.999939,110.225220 
z"/>
<path fill="#898984" opacity="1.000000" stroke="none" 
	d="
M56.923771,102.860107 
	C53.350677,103.453285 49.725189,103.977570 49.602932,108.667526 
	C46.085403,106.609871 42.794125,104.684570 40.278484,103.212990 
	C41.703461,103.445015 44.121769,103.838783 46.206165,104.178185 
	C48.628162,101.688179 44.637867,96.463661 50.375088,96.220192 
	C54.653034,96.038635 54.922783,99.821777 56.611923,102.720886 
	C56.996571,102.909775 56.923771,102.860107 56.923771,102.860107 
z"/>
<path fill="#280A03" opacity="1.000000" stroke="none" 
	d="
M116.096855,124.117157 
	C114.739876,124.738785 113.438332,125.567841 112.016754,125.947754 
	C103.877815,128.122849 97.105148,124.921989 90.783218,120.105972 
	C91.170647,117.493759 91.593513,114.642548 92.102951,111.191704 
	C92.348358,110.369400 92.540688,110.180908 92.941895,110.343414 
	C93.805000,112.414246 94.492714,114.168243 94.946838,116.097351 
	C94.503654,120.351349 97.951683,119.180756 100.014473,119.988266 
	C99.999390,119.999901 100.022461,119.969276 100.091812,120.313995 
	C101.393669,121.158714 102.626183,121.658707 104.025917,122.515945 
	C108.161041,123.287849 112.128952,123.702507 116.096855,124.117157 
z"/>
<path fill="#555450" opacity="1.000000" stroke="none" 
	d="
M156.114609,99.118965 
	C156.302704,98.522911 156.580505,97.393967 156.665878,97.408333 
	C159.121246,97.821594 163.241776,97.762054 163.664597,98.974525 
	C164.717957,101.995247 164.993973,106.015877 163.730545,108.792648 
	C163.143250,110.083405 158.252258,109.415993 155.312164,109.636246 
	C155.412720,109.123085 155.513275,108.609932 156.150024,107.792206 
	C157.698502,105.817238 158.710770,104.146835 160.003784,102.626770 
	C160.671402,102.653534 161.058273,102.529945 161.445145,102.406357 
	C161.245132,102.170654 161.045120,101.934944 160.817505,101.353989 
	C159.808716,100.634201 158.827530,100.259651 157.674042,99.705750 
	C157.039383,99.390602 156.576996,99.254784 156.114609,99.118965 
z"/>
<path fill="#93928D" opacity="1.000000" stroke="none" 
	d="
M143.996765,106.991592 
	C144.683792,104.518112 145.229645,101.991402 146.131592,99.598953 
	C146.463989,98.717316 147.668976,97.562180 148.416687,97.603539 
	C149.216278,97.647758 150.354095,98.836052 150.619980,99.738403 
	C151.149796,101.536278 151.753189,103.672073 151.207733,105.291573 
	C150.883469,106.254349 148.385101,106.409279 146.948227,107.101753 
	C146.108521,107.506432 145.434250,108.254425 144.321930,108.677124 
	C143.971130,108.001389 143.983948,107.496490 143.996765,106.991592 
z"/>
<path fill="#4D4C48" opacity="1.000000" stroke="none" 
	d="
M65.904877,101.684807 
	C65.964470,102.414124 65.933418,102.824814 65.700630,103.610344 
	C65.498886,103.985191 65.136032,104.120514 65.136032,104.120514 
	C64.927711,104.125389 64.719398,104.130257 64.200363,104.172157 
	C62.521320,104.901543 60.962601,105.375229 59.841408,106.351425 
	C58.840042,107.223297 58.321770,108.650017 57.590324,109.831894 
	C57.202950,109.660179 56.815575,109.488464 56.428196,109.316750 
	C56.651371,107.394539 56.874542,105.472336 57.010742,103.205116 
	C56.923771,102.860107 56.996571,102.909775 56.961678,102.895134 
	C58.612457,100.602150 60.298134,98.323799 62.065380,95.935196 
	C63.382660,97.843544 64.598450,99.604858 65.904877,101.684807 
z"/>
<path fill="#BD5E35" opacity="1.000000" stroke="none" 
	d="
M130.489258,95.524445 
	C130.505081,96.136078 130.520889,96.747704 130.251892,97.795471 
	C129.192627,97.568848 128.349670,96.970352 127.656296,96.231461 
	C125.416206,93.844360 123.231133,91.405647 120.832520,88.753433 
	C120.066872,88.374855 119.493576,88.229675 118.929199,88.051826 
	C118.938126,88.019157 118.936852,88.079514 118.796112,87.754791 
	C117.368950,87.052177 116.082527,86.674286 114.422447,86.252960 
	C113.052383,86.123138 112.055969,86.036751 111.069366,85.632507 
	C111.053093,84.891541 111.027016,84.468422 111.256836,83.966934 
	C111.696320,83.601089 111.879921,83.313614 112.063522,83.026138 
	C112.476990,83.028084 112.890465,83.030037 113.665924,83.309273 
	C115.054344,83.613342 116.080765,83.640121 117.347290,83.830002 
	C118.051826,84.328918 118.516258,84.664734 119.065971,85.242203 
	C119.445824,85.613884 119.740402,85.743912 120.260971,85.939980 
	C120.486961,86.006027 120.948997,86.096863 121.160774,86.366013 
	C124.411453,89.598251 127.450356,92.561348 130.489258,95.524445 
z"/>
<path fill="#280A03" opacity="1.000000" stroke="none" 
	d="
M88.958954,98.100014 
	C89.599236,96.299278 90.239510,94.498543 91.191360,92.232651 
	C92.006844,91.514542 92.510757,91.261597 93.028793,91.380783 
	C93.075272,92.248337 93.107643,92.743767 93.097473,93.586304 
	C92.996620,94.629768 92.938301,95.326126 92.657318,96.274681 
	C92.324303,97.406570 92.213959,98.286247 92.069611,99.494400 
	C91.905411,100.242981 91.775208,100.663078 91.464157,101.357292 
	C91.486336,103.079231 91.689377,104.527069 91.949371,106.308594 
	C92.008499,107.093201 92.010674,107.544113 91.701019,108.131027 
	C90.521805,108.488464 89.654427,108.709900 88.841400,108.546341 
	C87.594368,107.747520 86.292984,107.333702 84.833336,106.710571 
	C84.191193,106.321220 83.707321,106.141190 83.128479,105.646881 
	C83.080544,104.900444 83.127579,104.468292 83.564537,104.027550 
	C85.646118,103.684189 87.337776,103.349411 89.228134,102.856964 
	C89.301086,102.136269 89.175331,101.573242 89.026749,100.775803 
	C89.003922,100.541397 88.963615,100.072090 88.976700,99.793327 
	C88.987183,99.328537 88.984581,99.142502 88.972931,98.742447 
	C88.963890,98.528419 88.958954,98.100014 88.958954,98.100014 
z"/>
<path fill="#461506" opacity="1.000000" stroke="none" 
	d="
M93.140015,93.239189 
	C93.107643,92.743767 93.075272,92.248337 93.185081,91.094498 
	C94.903503,88.638741 96.479752,86.841400 98.056000,85.044067 
	C101.514725,84.156898 104.973442,83.269722 108.623528,82.954185 
	C107.267921,84.273499 105.640060,84.892975 104.196259,85.804123 
	C102.688927,86.755363 101.358841,87.987450 99.592331,89.093307 
	C97.202263,90.472969 95.171135,91.856079 93.140015,93.239189 
z"/>
<path fill="#180805" opacity="1.000000" stroke="none" 
	d="
M118.980698,85.000549 
	C118.516258,84.664734 118.051826,84.328918 117.324066,83.566582 
	C117.034218,82.965652 117.007698,82.791245 116.981178,82.616837 
	C125.041580,79.690178 129.004166,81.159653 129.844391,87.636398 
	C127.883591,87.109657 126.451942,86.529709 124.938988,85.623550 
	C123.352745,83.660873 121.894791,81.419708 119.738045,84.936417 
	C119.317070,84.969269 119.148888,84.984909 118.980698,85.000549 
z"/>
<path fill="#983112" opacity="1.000000" stroke="none" 
	d="
M99.951271,89.096756 
	C101.358841,87.987450 102.688927,86.755363 104.196259,85.804123 
	C105.640060,84.892975 107.267921,84.273499 108.911346,83.166130 
	C109.496620,82.800987 109.985435,82.795532 110.767197,83.118332 
	C111.040413,83.646156 111.020683,83.845726 111.000946,84.045303 
	C111.027016,84.468422 111.053093,84.891541 110.938599,85.926147 
	C110.202560,87.413200 109.607094,88.288757 108.691040,89.172447 
	C107.944199,89.210220 107.517944,89.239861 106.889511,89.000641 
	C104.558350,89.195656 102.429382,89.659531 100.197174,89.872177 
	C100.046371,89.446213 99.998817,89.271484 99.951271,89.096756 
z"/>
<path fill="#AAA4A2" opacity="1.000000" stroke="none" 
	d="
M143.609360,107.112968 
	C143.983948,107.496490 143.971130,108.001389 144.017883,108.882858 
	C141.657852,109.538185 139.238251,109.816925 136.409302,110.160446 
	C135.584595,109.367149 135.169250,108.509071 134.777115,106.844803 
	C134.809677,103.366051 134.819031,100.693497 135.116699,97.848267 
	C135.616531,97.601814 135.828079,97.528038 136.039612,97.454269 
	C136.506088,100.741302 136.972565,104.028336 137.539536,108.023445 
	C139.339630,107.773468 141.280792,107.503906 143.609360,107.112968 
z"/>
<path fill="#461506" opacity="1.000000" stroke="none" 
	d="
M125.020287,85.949768 
	C126.451942,86.529709 127.883591,87.109657 129.610260,87.845444 
	C129.949417,88.424606 129.993561,88.847908 130.087433,89.903488 
	C130.719284,91.034271 131.301407,91.532791 131.907349,92.356308 
	C131.936646,93.115761 131.942123,93.550209 131.947601,93.984665 
	C131.612335,94.312164 131.277054,94.639664 130.715515,95.245804 
	C127.450356,92.561348 124.411453,89.598251 121.364304,86.132736 
	C122.577461,85.736801 123.798874,85.843285 125.020287,85.949768 
z"/>
<path fill="#A9A9A2" opacity="1.000000" stroke="none" 
	d="
M83.174606,104.036140 
	C83.127579,104.468292 83.080544,104.900444 83.109573,105.966415 
	C83.503136,107.007721 83.820648,107.415207 84.138161,107.822693 
	C84.422638,107.521759 84.707115,107.220825 84.991600,106.919891 
	C86.292984,107.333702 87.594368,107.747520 88.484421,108.559326 
	C87.378609,109.095245 86.684128,109.233192 85.989647,109.371132 
	C84.920753,109.308342 83.851860,109.245560 82.380844,109.211807 
	C81.573654,105.449211 81.168587,101.657578 80.879333,97.419098 
	C81.632278,97.085182 82.269417,97.198097 83.007561,97.894913 
	C83.129395,98.668167 83.150208,98.857544 83.118561,99.459793 
	C83.102257,101.260498 83.138428,102.648315 83.174606,104.036140 
z"/>
<path fill="#461506" opacity="1.000000" stroke="none" 
	d="
M116.411133,124.098724 
	C112.128952,123.702507 108.161041,123.287849 104.103500,122.422592 
	C104.013863,121.971985 104.165680,121.787216 104.606888,121.885223 
	C109.699226,121.654716 114.350349,121.326202 119.218781,121.133255 
	C119.627213,121.548965 119.818321,121.829109 120.009430,122.109253 
	C119.444160,122.602135 118.878891,123.095001 118.149612,123.819916 
	C117.565544,124.061409 117.145470,124.070854 116.411133,124.098724 
z"/>
<path fill="#3A170B" opacity="1.000000" stroke="none" 
	d="
M85.976471,109.742447 
	C86.684128,109.233192 87.378609,109.095245 88.430069,108.944321 
	C89.654427,108.709900 90.521805,108.488464 91.926826,108.312141 
	C92.565147,108.913704 92.665833,109.470146 92.766510,110.026588 
	C92.540688,110.180908 92.348358,110.369400 92.095932,110.771103 
	C91.420990,111.228622 90.824203,111.479347 90.261574,111.791595 
	C89.195564,112.383217 88.149147,113.010139 87.094597,113.622406 
	C86.717499,112.452858 86.340393,111.283302 85.976471,109.742447 
z"/>
<path fill="#160401" opacity="1.000000" stroke="none" 
	d="
M97.680023,85.038673 
	C96.479752,86.841400 94.903503,88.638741 93.170959,90.722366 
	C92.510757,91.261597 92.006844,91.514542 91.242882,91.877151 
	C91.428932,88.159042 93.182640,85.519966 97.680023,85.038673 
z"/>
<path fill="#CDCCC8" opacity="1.000000" stroke="none" 
	d="
M159.723022,102.476440 
	C158.710770,104.146835 157.698502,105.817238 156.420746,107.726044 
	C156.111725,105.308876 156.068176,102.653290 156.069626,99.558334 
	C156.576996,99.254784 157.039383,99.390602 157.562317,100.095932 
	C158.362350,101.269257 159.101837,101.873047 159.811768,102.475357 
	C159.782196,102.473877 159.723038,102.476440 159.723022,102.476440 
z"/>
<path fill="#180805" opacity="1.000000" stroke="none" 
	d="
M136.036697,97.124008 
	C135.828079,97.528038 135.616531,97.601814 134.913528,97.847122 
	C134.422058,98.018646 134.015869,98.048538 134.015869,98.048538 
	C134.006714,96.971710 133.997559,95.894882 133.989990,94.414612 
	C134.672318,94.938690 135.353043,95.866219 136.036697,97.124008 
z"/>
<path fill="#3F3834" opacity="1.000000" stroke="none" 
	d="
M83.171028,99.046913 
	C83.150208,98.857544 83.129395,98.668167 83.150291,98.196091 
	C84.841179,97.947296 86.490356,97.981194 88.549240,98.057556 
	C88.958954,98.100014 88.963890,98.528419 88.560318,98.762299 
	C86.771210,98.998253 85.385674,99.000328 83.792221,99.001495 
	C83.584297,99.000603 83.171028,99.046913 83.171028,99.046913 
z"/>
<path fill="#280A03" opacity="1.000000" stroke="none" 
	d="
M131.883545,92.031311 
	C131.301407,91.532791 130.719284,91.034271 130.116425,90.221237 
	C131.010071,90.385368 131.924423,90.864021 132.634491,91.674942 
	C132.247986,92.015228 132.065765,92.023270 131.883545,92.031311 
z"/>
<path fill="#93928D" opacity="1.000000" stroke="none" 
	d="
M152.052155,108.871048 
	C152.095383,108.878876 152.044342,109.084259 152.044342,109.084259 
	C152.044342,109.084259 152.008942,108.863228 152.052155,108.871048 
z"/>
<path fill="#180805" opacity="1.000000" stroke="none" 
	d="
M131.907349,92.356308 
	C132.065765,92.023270 132.247986,92.015228 132.703491,92.002037 
	C133.294235,92.471359 133.611679,92.945839 133.958771,93.714325 
	C133.535400,94.004204 133.082397,94.000076 132.288483,93.990311 
	C131.942123,93.550209 131.936646,93.115761 131.907349,92.356308 
z"/>
<path fill="#461506" opacity="1.000000" stroke="none" 
	d="
M116.601700,82.687210 
	C117.007698,82.791245 117.034218,82.965652 117.083969,83.403481 
	C116.080765,83.640121 115.054344,83.613342 113.976112,83.306435 
	C114.690277,82.936737 115.456253,82.847160 116.601700,82.687210 
z"/>
<path fill="#461506" opacity="1.000000" stroke="none" 
	d="
M111.256836,83.966934 
	C111.020683,83.845726 111.040413,83.646156 111.132362,83.153183 
	C111.204582,82.859787 111.645065,82.884254 111.854294,82.955200 
	C111.879921,83.313614 111.696320,83.601089 111.256836,83.966934 
z"/>
<path fill="#020201" opacity="1.000000" stroke="none" 
	d="
M65.359344,104.350510 
	C65.136032,104.120514 65.498886,103.985191 65.680435,103.918610 
	C66.816742,103.925659 67.771492,103.999298 68.726242,104.072937 
	C68.703308,104.345512 68.680367,104.618095 68.657425,104.890678 
	C67.632507,104.787285 66.607582,104.683891 65.359344,104.350510 
z"/>
<path fill="#761C08" opacity="1.000000" stroke="none" 
	d="
M120.268875,122.088104 
	C119.818321,121.829109 119.627213,121.548965 119.067223,120.808701 
	C113.571243,119.796059 108.444138,119.243530 103.055893,118.496574 
	C101.821205,117.223373 100.847656,116.144600 100.148361,114.944351 
	C100.952255,114.542427 101.481888,114.261993 102.334488,114.136696 
	C108.826385,117.611320 114.941315,117.642776 121.345444,113.942123 
	C122.490982,112.614342 123.286819,111.335037 124.304924,109.860771 
	C124.723610,109.117622 124.920029,108.569427 125.371948,107.759827 
	C128.296661,101.413338 126.941284,97.161507 120.748398,92.856903 
	C120.000366,92.142159 119.507561,91.563889 119.040863,90.713470 
	C119.082542,90.259727 119.098106,90.078133 119.392365,89.883110 
	C120.122330,89.575401 120.573601,89.281113 121.024872,88.986832 
	C123.231133,91.405647 125.416206,93.844360 127.656296,96.231461 
	C128.349670,96.970352 129.192627,97.568848 130.201538,98.097504 
	C130.932022,98.410820 131.428055,98.858253 131.831497,99.982681 
	C131.870911,102.777374 132.002914,104.895096 132.134918,107.012810 
	C132.115677,107.181877 132.096451,107.350952 131.761261,107.812378 
	C130.941284,108.443672 130.437286,108.782631 129.933289,109.121597 
	C130.397614,109.386780 130.861938,109.651962 131.326263,109.917152 
	C131.275665,110.403946 131.225067,110.890739 130.782913,111.769394 
	C128.958344,113.778397 127.525345,115.395546 126.092354,117.012695 
	C125.588860,117.927261 125.085358,118.841820 124.075089,119.661118 
	C122.728104,120.387405 121.887886,121.208946 121.047676,122.030495 
	C120.874557,122.042641 120.701447,122.054794 120.268875,122.088104 
z"/>
<path fill="#461506" opacity="1.000000" stroke="none" 
	d="
M126.422714,116.963242 
	C127.525345,115.395546 128.958344,113.778397 130.725174,112.131912 
	C129.623688,113.706314 128.188385,115.310051 126.422714,116.963242 
z"/>
<path fill="#461506" opacity="1.000000" stroke="none" 
	d="
M132.357758,106.716545 
	C132.002914,104.895096 131.870911,102.777374 131.901779,100.326691 
	C132.236633,102.135902 132.408630,104.278091 132.357758,106.716545 
z"/>
<path fill="#461506" opacity="1.000000" stroke="none" 
	d="
M121.385788,122.017410 
	C121.887886,121.208946 122.728104,120.387405 123.787186,119.812134 
	C123.245323,120.707047 122.484612,121.355690 121.385788,122.017410 
z"/>
<path fill="#461506" opacity="1.000000" stroke="none" 
	d="
M134.014511,98.474609 
	C134.015869,98.048538 134.422058,98.018646 134.625229,98.019791 
	C134.819031,100.693497 134.809677,103.366051 134.731628,106.475594 
	C134.446350,104.241943 134.229752,101.571304 134.014511,98.474609 
z"/>
<path fill="#461506" opacity="1.000000" stroke="none" 
	d="
M131.494095,109.723450 
	C130.861938,109.651962 130.397614,109.386780 129.933289,109.121597 
	C130.437286,108.782631 130.941284,108.443672 131.732834,108.066040 
	C131.900909,108.528152 131.781418,109.028954 131.494095,109.723450 
z"/>
<path fill="#CF7145" opacity="1.000000" stroke="none" 
	d="
M99.874100,115.065834 
	C100.847656,116.144600 101.821205,117.223373 102.852371,118.767868 
	C102.569923,119.522591 102.229874,119.811600 101.578072,120.086365 
	C100.851707,120.037834 100.437080,120.003555 100.022461,119.969276 
	C100.022461,119.969276 99.999390,119.999901 99.988586,119.642738 
	C98.378662,118.164467 96.779541,117.043358 95.180428,115.922249 
	C94.492714,114.168243 93.805000,112.414246 92.941902,110.343414 
	C92.665833,109.470146 92.565147,108.913704 92.238655,108.176147 
	C92.010674,107.544113 92.008499,107.093201 92.056442,105.908890 
	C91.952713,103.811401 91.798866,102.447289 91.645012,101.083183 
	C91.775208,100.663078 91.905411,100.242981 92.308899,99.252991 
	C92.681458,97.796227 92.780716,96.909348 92.879990,96.022476 
	C92.938301,95.326126 92.996620,94.629768 93.097473,93.586304 
	C95.171135,91.856079 97.202263,90.472969 99.592331,89.093307 
	C99.998817,89.271484 100.046371,89.446213 99.999283,90.112274 
	C99.280930,91.412285 98.657234,92.220970 97.759781,93.220551 
	C97.005974,94.645348 96.525917,95.879242 95.953064,97.358475 
	C95.769516,97.941277 95.678772,98.278725 95.287880,98.775101 
	C94.719078,99.980568 94.450432,101.027122 94.145935,102.431168 
	C94.803787,104.521950 95.497505,106.255241 96.149521,108.226952 
	C96.107819,108.465370 96.153122,108.947311 96.196442,109.271118 
	C96.887230,110.727478 97.534698,111.860031 98.208557,113.274475 
	C98.781326,114.059517 99.327713,114.562675 99.874100,115.065834 
z"/>
<path fill="#461506" opacity="1.000000" stroke="none" 
	d="
M94.946838,116.097351 
	C96.779541,117.043358 98.378662,118.164467 100.003662,119.631104 
	C97.951683,119.180756 94.503654,120.351349 94.946838,116.097351 
z"/>
<path fill="#461506" opacity="1.000000" stroke="none" 
	d="
M100.091812,120.313995 
	C100.437080,120.003555 100.851707,120.037834 101.775024,120.293724 
	C102.911041,120.939301 103.538361,121.363258 104.165680,121.787216 
	C104.165680,121.787216 104.013863,121.971985 103.936279,122.065346 
	C102.626183,121.658707 101.393669,121.158714 100.091812,120.313995 
z"/>
<path fill="#181712" opacity="1.000000" stroke="none" 
	d="
M159.841324,102.476837 
	C159.101837,101.873047 158.362350,101.269257 157.734589,100.275276 
	C158.827530,100.259651 159.808716,100.634201 160.536514,101.509613 
	C160.135864,102.165932 159.988602,102.321388 159.841324,102.476837 
z"/>
<path fill="#93928D" opacity="1.000000" stroke="none" 
	d="
M159.811768,102.475357 
	C159.988602,102.321388 160.135864,102.165932 160.564117,101.854858 
	C161.045120,101.934944 161.245132,102.170654 161.445145,102.406357 
	C161.058273,102.529945 160.671402,102.653534 160.003784,102.626778 
	C159.723038,102.476440 159.782196,102.473877 159.811768,102.475357 
z"/>
<path fill="#591206" opacity="1.000000" stroke="none" 
	d="
M119.113663,89.896538 
	C119.098106,90.078133 119.082542,90.259727 118.661987,90.702972 
	C115.175209,90.364517 112.093422,89.764412 109.011627,89.164314 
	C109.607094,88.288757 110.202560,87.413200 110.928795,86.244003 
	C112.055969,86.036751 113.052383,86.123138 114.573624,86.556412 
	C116.377930,87.295372 117.657387,87.687447 118.936852,88.079514 
	C118.936852,88.079514 118.938126,88.019157 118.936081,88.355972 
	C118.993919,89.094040 119.053795,89.495293 119.113663,89.896538 
z"/>
<path fill="#280A03" opacity="1.000000" stroke="none" 
	d="
M124.938988,85.623550 
	C123.798874,85.843285 122.577461,85.736801 121.152527,85.863586 
	C120.948997,86.096863 120.486961,86.006027 120.246933,85.701553 
	C120.006905,85.397072 119.990829,84.919212 119.990829,84.919212 
	C121.894791,81.419708 123.352745,83.660873 124.938988,85.623550 
z"/>
<path fill="#983112" opacity="1.000000" stroke="none" 
	d="
M118.796112,87.754791 
	C117.657387,87.687447 116.377930,87.295372 114.947281,86.599854 
	C116.082527,86.674286 117.368950,87.052177 118.796112,87.754791 
z"/>
<path fill="#983112" opacity="1.000000" stroke="none" 
	d="
M119.392365,89.883110 
	C119.053795,89.495293 118.993919,89.094040 118.927155,88.388641 
	C119.493576,88.229675 120.066872,88.374855 120.832520,88.753433 
	C120.573601,89.281113 120.122330,89.575401 119.392365,89.883110 
z"/>
<path fill="#461506" opacity="1.000000" stroke="none" 
	d="
M119.738045,84.936417 
	C119.990829,84.919212 120.006905,85.397072 120.020943,85.635498 
	C119.740402,85.743912 119.445824,85.613884 119.065971,85.242203 
	C119.148888,84.984909 119.317070,84.969269 119.738045,84.936417 
z"/>
<path fill="#201513" opacity="1.000000" stroke="none" 
	d="
M83.118561,99.459793 
	C83.171028,99.046913 83.584297,99.000603 83.791428,99.253769 
	C84.000519,99.675163 84.002472,99.843407 84.258499,100.259392 
	C85.679703,100.684937 86.846848,100.862740 88.129234,101.292290 
	C88.506134,102.034241 88.767784,102.524445 89.029427,103.014641 
	C87.337776,103.349411 85.646118,103.684189 83.564529,104.027550 
	C83.138428,102.648315 83.102257,101.260498 83.118561,99.459793 
z"/>
<path fill="#3A170B" opacity="1.000000" stroke="none" 
	d="
M91.464157,101.357292 
	C91.798866,102.447289 91.952713,103.811401 91.999496,105.575203 
	C91.689377,104.527069 91.486336,103.079231 91.464157,101.357292 
z"/>
<path fill="#130D09" opacity="1.000000" stroke="none" 
	d="
M84.004425,100.011642 
	C84.002472,99.843407 84.000519,99.675163 83.999359,99.254662 
	C85.385674,99.000328 86.771210,98.998253 88.569351,98.976326 
	C88.984581,99.142502 88.987183,99.328537 88.565018,99.769592 
	C86.761642,100.020294 85.383034,100.015968 84.004425,100.011642 
z"/>
<path fill="#282823" opacity="1.000000" stroke="none" 
	d="
M84.258499,100.259392 
	C85.383034,100.015968 86.761642,100.020294 88.551933,100.048355 
	C88.963615,100.072090 89.003922,100.541397 88.767456,100.779251 
	C88.358650,101.024910 88.186317,101.032722 88.013985,101.040535 
	C86.846848,100.862740 85.679703,100.684937 84.258499,100.259392 
z"/>
<path fill="#201513" opacity="1.000000" stroke="none" 
	d="
M84.833336,106.710571 
	C84.707115,107.220825 84.422638,107.521759 84.138161,107.822693 
	C83.820648,107.415207 83.503136,107.007721 83.204529,106.280693 
	C83.707321,106.141190 84.191193,106.321220 84.833336,106.710571 
z"/>
<path fill="#3A170B" opacity="1.000000" stroke="none" 
	d="
M88.129234,101.292290 
	C88.186317,101.032722 88.358650,101.024910 88.790283,101.013657 
	C89.175331,101.573242 89.301086,102.136269 89.228134,102.856964 
	C88.767784,102.524445 88.506134,102.034241 88.129234,101.292290 
z"/>
<path fill="#3A170B" opacity="1.000000" stroke="none" 
	d="
M92.657318,96.274681 
	C92.780716,96.909348 92.681458,97.796227 92.342903,98.924515 
	C92.213959,98.286247 92.324303,97.406570 92.657318,96.274681 
z"/>
<path fill="#400A04" opacity="1.000000" stroke="none" 
	d="
M108.691040,89.172447 
	C112.093422,89.764412 115.175209,90.364517 118.635880,90.975113 
	C119.507561,91.563889 120.000366,92.142159 120.758179,93.229675 
	C121.207504,95.488800 121.391823,97.238693 121.576141,98.988579 
	C121.247635,99.017052 120.919121,99.045525 120.590614,99.073997 
	C120.118370,97.824326 119.646118,96.574654 119.139420,95.233803 
	C116.091988,97.317314 115.615791,100.804611 117.748398,102.339241 
	C120.264450,104.149803 122.665520,106.120155 125.116440,108.021233 
	C124.920029,108.569427 124.723610,109.117622 123.944992,109.893768 
	C122.573776,111.411354 121.784752,112.700981 120.995728,113.990608 
	C114.941315,117.642776 108.826385,117.611320 102.320953,113.780930 
	C101.004730,112.165428 100.024994,111.060829 99.033287,109.509598 
	C99.012199,105.041367 99.003075,101.019775 99.025482,96.638588 
	C101.047821,94.859779 103.038635,93.440559 105.331375,91.959213 
	C106.104897,91.291824 106.576500,90.686577 107.067795,89.878830 
	C107.087494,89.676346 107.091698,89.269493 107.091698,89.269493 
	C107.517944,89.239861 107.944199,89.210220 108.691040,89.172447 
M106.133553,98.419121 
	C105.047142,97.964050 103.960724,97.508972 102.342529,96.831154 
	C103.007179,99.713158 103.480194,101.764191 104.176895,104.785156 
	C107.194328,102.564651 109.687721,100.729782 112.181122,98.894913 
	C111.872223,98.469551 111.563324,98.044182 111.254433,97.618820 
	C109.757385,97.986023 108.260338,98.353226 106.133553,98.419121 
z"/>
<path fill="#761C08" opacity="1.000000" stroke="none" 
	d="
M106.889511,89.000641 
	C107.091698,89.269493 107.087494,89.676346 106.750839,89.910049 
	C105.952599,90.769608 105.491020,91.395470 105.029449,92.021339 
	C103.038635,93.440559 101.047821,94.859779 98.704208,96.646362 
	C97.922981,97.026436 97.494553,97.039146 97.190140,96.724800 
	C97.553947,95.275040 97.793747,94.152351 98.033539,93.029648 
	C98.657234,92.220970 99.280930,91.412285 100.102524,90.363510 
	C102.429382,89.659531 104.558350,89.195656 106.889511,89.000641 
z"/>
<path fill="#B95227" opacity="1.000000" stroke="none" 
	d="
M104.606888,121.885223 
	C103.538361,121.363258 102.911041,120.939301 102.086769,120.307968 
	C102.229874,119.811600 102.569923,119.522591 103.113510,118.962296 
	C108.444138,119.243530 113.571243,119.796059 118.849915,120.673134 
	C114.350349,121.326202 109.699226,121.654716 104.606888,121.885223 
z"/>
<path fill="#4F0F06" opacity="1.000000" stroke="none" 
	d="
M125.371948,107.759827 
	C122.665520,106.120155 120.264450,104.149803 117.748398,102.339241 
	C115.615791,100.804611 116.091988,97.317314 119.139420,95.233803 
	C119.646118,96.574654 120.118370,97.824326 120.590614,99.073997 
	C120.919121,99.045525 121.247635,99.017052 121.576141,98.988579 
	C121.391823,97.238693 121.207504,95.488800 121.013412,93.366142 
	C126.941284,97.161507 128.296661,101.413338 125.371948,107.759827 
z"/>
<path fill="#591206" opacity="1.000000" stroke="none" 
	d="
M99.045250,109.956238 
	C100.024994,111.060829 101.004730,112.165428 101.997993,113.625786 
	C101.481888,114.261993 100.952255,114.542427 100.148361,114.944351 
	C99.327713,114.562675 98.781326,114.059517 98.412010,113.030243 
	C98.719757,111.673920 98.850449,110.843719 98.997482,109.999771 
	C99.013832,109.986031 99.045250,109.956238 99.045250,109.956238 
z"/>
<path fill="#4F0F06" opacity="1.000000" stroke="none" 
	d="
M121.345436,113.942123 
	C121.784752,112.700981 122.573776,111.411354 123.722733,110.088730 
	C123.286819,111.335037 122.490982,112.614342 121.345436,113.942123 
z"/>
<path fill="#591206" opacity="1.000000" stroke="none" 
	d="
M97.066132,97.051865 
	C97.494553,97.039146 97.922981,97.026436 98.672676,97.005951 
	C99.003075,101.019775 99.012199,105.041367 99.033287,109.509598 
	C99.045250,109.956238 99.013832,109.986031 98.722992,109.868164 
	C97.672478,109.482643 96.912796,109.214981 96.153122,108.947311 
	C96.153122,108.947311 96.107819,108.465370 96.360123,107.951721 
	C96.410812,105.627739 96.209206,103.817413 96.010574,101.579361 
	C95.871704,100.306488 95.729858,99.461334 95.588028,98.616173 
	C95.678772,98.278725 95.769516,97.941277 96.208481,97.348389 
	C96.726509,97.079262 96.896324,97.065559 97.066132,97.051865 
z"/>
<path fill="#761C08" opacity="1.000000" stroke="none" 
	d="
M96.007599,102.007080 
	C96.209206,103.817413 96.410812,105.627739 96.401817,107.713303 
	C95.497505,106.255241 94.803787,104.521950 94.449028,102.402115 
	C95.194519,102.012741 95.601059,102.009911 96.007599,102.007080 
z"/>
<path fill="#761C08" opacity="1.000000" stroke="none" 
	d="
M96.196442,109.271118 
	C96.912796,109.214981 97.672478,109.482643 98.706650,109.881912 
	C98.850449,110.843719 98.719757,111.673920 98.385620,112.748352 
	C97.534698,111.860031 96.887230,110.727478 96.196442,109.271118 
z"/>
<path fill="#983112" opacity="1.000000" stroke="none" 
	d="
M96.010574,101.579369 
	C95.601059,102.009911 95.194519,102.012741 94.484879,102.044617 
	C94.450432,101.027122 94.719078,99.980568 95.287872,98.775101 
	C95.729858,99.461334 95.871704,100.306488 96.010574,101.579369 
z"/>
<path fill="#983112" opacity="1.000000" stroke="none" 
	d="
M97.190140,96.724800 
	C96.896324,97.065559 96.726509,97.079262 96.301285,97.103043 
	C96.525917,95.879242 97.005974,94.645348 97.759789,93.220551 
	C97.793747,94.152351 97.553947,95.275040 97.190140,96.724800 
z"/>
<path fill="#6C1F16" opacity="1.000000" stroke="none" 
	d="
M106.448425,98.569778 
	C108.260338,98.353226 109.757385,97.986023 111.254433,97.618820 
	C111.563324,98.044182 111.872223,98.469551 112.181122,98.894913 
	C109.687721,100.729782 107.194328,102.564651 104.176895,104.785156 
	C103.480194,101.764191 103.007179,99.713158 102.342529,96.831154 
	C103.960724,97.508972 105.047142,97.964050 106.448425,98.569778 
z"/>
<path fill="#591206" opacity="1.000000" stroke="none" 
	d="
M105.331375,91.959213 
	C105.491020,91.395470 105.952599,90.769608 106.731140,90.112534 
	C106.576500,90.686577 106.104897,91.291824 105.331375,91.959213 
z"/>
</svg>